<svg xmlns="http://www.w3.org/2000/svg" viewBox="0 0 128 128">
  <defs>
    <linearGradient id="r" x1="32" y1="20" x2="96" y2="112" gradientUnits="userSpaceOnUse">
      <stop offset="0" stop-color="#FFD166"/>
      <stop offset="0.55" stop-color="#F4A261"/>
      <stop offset="1" stop-color="#E76F51"/>
    </linearGradient>
    <radialGradient id="rh" cx="44" cy="30" r="70" gradientUnits="userSpaceOnUse">
      <stop offset="0" stop-color="#FFFFFF" stop-opacity="0.8"/>
      <stop offset="0.35" stop-color="#FFFFFF" stop-opacity="0.18"/>
      <stop offset="1" stop-color="#FFFFFF" stop-opacity="0"/>
    </radialGradient>
    <filter id="ds" x="-30%" y="-30%" width="160%" height="160%">
      <feDropShadow dx="0" dy="14" stdDeviation="10" flood-color="#110C2E" flood-opacity="0.18"/>
    </filter>
  </defs>

  <path
    d="M64 16c16 0 22 10 22 20 0 20-44 30-44 54 0 12 10 22 22 22"
    fill="none"
    stroke="url(#r)"
    stroke-width="16"
    stroke-linecap="round"
    stroke-linejoin="round"
    filter="url(#ds)"
  />
  <path
    d="M64 16c-16 0-22 10-22 20 0 20 44 30 44 54 0 12-10 22-22 22"
    fill="none"
    stroke="url(#r)"
    stroke-width="16"
    stroke-linecap="round"
    stroke-linejoin="round"
    filter="url(#ds)"
  />
  <path
    d="M54 80l-10 36 20-14 20 14-10-36"
    fill="url(#r)"
    filter="url(#ds)"
  />
  <path
    d="M40 44c0-12 10-20 24-20 14 0 24 8 24 20"
    fill="none"
    stroke="url(#rh)"
    stroke-width="12"
    stroke-linecap="round"
    opacity="0.85"
  />
</svg>
