<svg xmlns="http://www.w3.org/2000/svg" viewBox="0 0 128 128">
  <defs>
    <linearGradient id="h" x1="24" y1="28" x2="104" y2="112" gradientUnits="userSpaceOnUse">
      <stop offset="0" stop-color="#FF7A8A"/>
      <stop offset="0.55" stop-color="#FF4D6D"/>
      <stop offset="1" stop-color="#C9184A"/>
    </linearGradient>
    <radialGradient id="h2" cx="44" cy="36" r="56" gradientUnits="userSpaceOnUse">
      <stop offset="0" stop-color="#FFFFFF" stop-opacity="0.75"/>
      <stop offset="0.4" stop-color="#FFFFFF" stop-opacity="0.18"/>
      <stop offset="1" stop-color="#FFFFFF" stop-opacity="0"/>
    </radialGradient>
    <filter id="ds" x="-30%" y="-30%" width="160%" height="160%">
      <feDropShadow dx="0" dy="14" stdDeviation="10" flood-color="#110C2E" flood-opacity="0.22"/>
    </filter>
  </defs>

  <path
    d="M64 112S22 84 16 56c-5-22 11-36 27-36 10 0 17 5 21 12 4-7 11-12 21-12 16 0 32 14 27 36-6 28-48 56-48 56Z"
    fill="url(#h)"
    filter="url(#ds)"
  />
  <path
    d="M33 52c-3-13 6-22 16-22 8 0 14 5 16 11-1-9-7-19-22-19-15 0-28 13-22 30 4 17 18 32 29 41-7-10-15-23-17-41Z"
    fill="url(#h2)"
  />
  <path
    d="M34 64h10l8-18 12 34 8-16h22"
    fill="none"
    stroke="#FFFFFF"
    stroke-width="6"
    stroke-linecap="round"
    stroke-linejoin="round"
    opacity="0.9"
  />
</svg>
