<svg xmlns="http://www.w3.org/2000/svg" viewBox="0 0 128 128">
  <defs>
    <linearGradient id="c" x1="28" y1="30" x2="102" y2="106" gradientUnits="userSpaceOnUse">
      <stop offset="0" stop-color="#66D9E8"/>
      <stop offset="0.55" stop-color="#22B8CF"/>
      <stop offset="1" stop-color="#0B7285"/>
    </linearGradient>
    <radialGradient id="ch" cx="44" cy="34" r="64" gradientUnits="userSpaceOnUse">
      <stop offset="0" stop-color="#FFFFFF" stop-opacity="0.75"/>
      <stop offset="0.4" stop-color="#FFFFFF" stop-opacity="0.18"/>
      <stop offset="1" stop-color="#FFFFFF" stop-opacity="0"/>
    </radialGradient>
    <filter id="ds" x="-30%" y="-30%" width="160%" height="160%">
      <feDropShadow dx="0" dy="14" stdDeviation="10" flood-color="#110C2E" flood-opacity="0.18"/>
    </filter>
  </defs>

  <path
    d="M34 34h60c14 0 24 10 24 24v14c0 14-10 24-24 24H62l-20 16V96H34c-14 0-24-10-24-24V58c0-14 10-24 24-24Z"
    fill="url(#c)"
    filter="url(#ds)"
  />
  <path d="M34 40h52c14 0 24 10 24 24" fill="none" stroke="url(#ch)" stroke-width="12" stroke-linecap="round" opacity="0.9"/>
  <path d="M42 62h44" stroke="#FFFFFF" stroke-width="10" stroke-linecap="round" opacity="0.95"/>
  <path d="M42 78h28" stroke="#FFFFFF" stroke-width="10" stroke-linecap="round" opacity="0.85"/>
</svg>
