<svg xmlns="http://www.w3.org/2000/svg" viewBox="0 0 128 128">
  <defs>
    <linearGradient id="b" x1="34" y1="26" x2="96" y2="110" gradientUnits="userSpaceOnUse">
      <stop offset="0" stop-color="#FFD43B"/>
      <stop offset="0.55" stop-color="#FAB005"/>
      <stop offset="1" stop-color="#E67700"/>
    </linearGradient>
    <radialGradient id="bh" cx="44" cy="34" r="66" gradientUnits="userSpaceOnUse">
      <stop offset="0" stop-color="#FFFFFF" stop-opacity="0.75"/>
      <stop offset="0.4" stop-color="#FFFFFF" stop-opacity="0.18"/>
      <stop offset="1" stop-color="#FFFFFF" stop-opacity="0"/>
    </radialGradient>
    <filter id="ds" x="-30%" y="-30%" width="160%" height="160%">
      <feDropShadow dx="0" dy="14" stdDeviation="10" flood-color="#110C2E" flood-opacity="0.18"/>
    </filter>
  </defs>

  <path
    d="M52 26c10 0 18 6 21 14 2-1 4-2 7-2 10 0 18 8 18 18v26c0 12-10 22-22 22H60c-18 0-32-14-32-32V54c0-10 6-18 16-20 2-5 4-8 8-8Z"
    fill="url(#b)"
    filter="url(#ds)"
  />
  <path d="M40 46c0 8 7 14 16 14" fill="none" stroke="#E8590C" stroke-width="8" stroke-linecap="round" opacity="0.35"/>
  <path d="M72 48c0 8-7 14-16 14" fill="none" stroke="#E8590C" stroke-width="8" stroke-linecap="round" opacity="0.35"/>
  <path d="M42 72c0 8 7 14 16 14" fill="none" stroke="#E8590C" stroke-width="8" stroke-linecap="round" opacity="0.35"/>
  <path d="M72 72c0 8-7 14-16 14" fill="none" stroke="#E8590C" stroke-width="8" stroke-linecap="round" opacity="0.35"/>

  <path d="M38 42c4-10 14-16 28-16 20 0 34 12 34 30" fill="none" stroke="url(#bh)" stroke-width="14" stroke-linecap="round" opacity="0.9"/>
</svg>
